<svg xmlns="http://www.w3.org/2000/svg" viewBox="0 0 24 24">
  <path fill="white" d="M12 .5C5.7.5.6 5.6.6 11.9c0 5 3.2 9.3 7.7 10.8.6.1.8-.2.8-.5v-2c-3.1.7-3.8-1.3-3.8-1.3-.5-1.3-1.2-1.7-1.2-1.7-1-.7.1-.7.1-.7 1.1.1 1.7 1.2 1.7 1.2 1 1.7 2.6 1.2 3.2.9.1-.7.4-1.2.7-1.5-2.5-.3-5.1-1.3-5.1-5.6 0-1.2.4-2.2 1.1-3-.1-.3-.5-1.5.1-3 0 0 1-.3 3.1 1.1.9-.2 1.9-.4 2.9-.4s2 .1 2.9.4c2.2-1.5 3.1-1.1 3.1-1.1.6 1.5.2 2.7.1 3 .7.8 1.1 1.8 1.1 3 0 4.4-2.6 5.3-5.1 5.6.4.3.8 1 .8 2.1v3c0 .3.2.6.8.5 4.5-1.5 7.7-5.8 7.7-10.8C23.4 5.6 18.3.5 12 .5z"/>
</svg>
