<svg xmlns="http://www.w3.org/2000/svg" viewBox="0 0 24 24">
  <path fill="none" stroke="white" stroke-linecap="round" stroke-linejoin="round" stroke-width="2.4" d="M7.5 2.8h9c2.6 0 4.7 2.1 4.7 4.7v9c0 2.6-2.1 4.7-4.7 4.7h-9c-2.6 0-4.7-2.1-4.7-4.7v-9c0-2.6 2.1-4.7 4.7-4.7z"/>
  <path fill="none" stroke="white" stroke-linecap="round" stroke-linejoin="round" stroke-width="2.4" d="M16.2 11.4a4.2 4.2 0 1 1-8.4 0 4.2 4.2 0 0 1 8.4 0z"/>
  <path fill="white" d="M17.6 6.6a1.1 1.1 0 1 0 0 2.2 1.1 1.1 0 0 0 0-2.2z"/>
</svg>
